<svg width="294" height="312" viewBox="0 0 294 312" fill="none" xmlns="http://www.w3.org/2000/svg">
<g clip-path="url(#clip0_165_9)">
<path d="M145.705 193.017L125.341 179.256C115.514 172.614 110.6 169.294 105.566 168.811C101.137 168.386 96.6529 169.45 92.7671 171.848C88.3487 174.575 85.0845 179.836 78.5563 190.358L45.0548 241.722M145.705 193.017L148.565 188.615C155.314 178.224 158.688 173.028 163.165 170.399C167.101 168.087 171.608 167.127 176.027 167.656C181.051 168.258 185.893 171.702 195.576 178.59L205.813 185.623M145.705 193.017L194.754 226.549M45.0548 241.722C45.8612 244.337 46.7901 246.338 48.0582 248.013C50.7588 251.579 54.4991 254.131 58.7426 255.301C63.5669 256.631 69.3308 255.331 80.8585 252.73L179.658 230.438C186.392 228.919 191.16 227.843 194.754 226.549M45.0548 241.722C43.9091 238.008 43.0111 233.055 41.7403 226.045L23.1851 123.7C21.0201 111.759 19.9376 105.788 21.3542 100.721C22.6001 96.2635 25.1575 92.2912 28.66 89.3732C32.6416 86.0558 38.4054 84.7553 49.9332 82.1543L148.733 59.8623C160.26 57.2614 166.025 55.9608 170.849 57.2914C175.092 58.4617 178.833 61.013 181.533 64.5799C184.603 68.6347 185.686 74.6054 187.851 86.5468L205.813 185.623M205.813 185.623L206.406 188.892C208.571 200.833 209.654 206.805 208.237 211.872C206.991 216.329 204.434 220.301 200.931 223.219C199.276 224.599 197.311 225.629 194.754 226.549M160.455 112.702C162.59 124.478 155.105 136.103 143.737 138.668C132.369 141.233 121.423 133.766 119.288 121.99C117.154 110.214 124.638 98.5888 136.006 96.0238C147.374 93.4589 158.32 100.926 160.455 112.702Z" stroke="#5C4895" stroke-width="5" stroke-linecap="round" stroke-linejoin="round"/>
</g>
<defs>
<clipPath id="clip0_165_9">
<rect width="253.208" height="260.034" fill="white" transform="matrix(0.975478 -0.220096 0.178392 0.983959 0 55.73)"/>
</clipPath>
</defs>
</svg>
