<svg width="189" height="195" viewBox="0 0 189 195" fill="none" xmlns="http://www.w3.org/2000/svg">
<path fill-rule="evenodd" clip-rule="evenodd" d="M153.409 174.765C152.276 180.609 146.807 184.471 141.203 183.385L114.966 178.299L85.222 131.525L137.318 94.7346L161.621 132.405L153.409 174.765ZM19.3605 159.764C13.7557 158.678 10.1266 153.052 11.2596 147.208L12.2234 142.236L59.8617 112.382L100.594 175.512L19.3605 159.764ZM66.3524 26.0505C77.567 28.2245 84.8213 39.4692 82.5541 51.1642C80.2869 62.8592 69.3562 70.5786 58.1417 68.4045C46.9271 66.2305 39.6728 54.9858 41.94 43.2908C44.2072 31.5958 55.1379 23.8764 66.3524 26.0505ZM171.993 24.557L50.1508 0.936716C38.9362 -1.23734 28.0056 6.48202 25.7384 18.177L1.10612 145.239C-1.16107 156.934 6.09322 168.179 17.3078 170.353L139.15 193.973C150.365 196.147 161.295 188.428 163.562 176.733L188.195 49.6708C190.462 37.9757 183.208 26.7311 171.993 24.557ZM60.1944 57.816C65.7991 58.9025 71.2675 55.0407 72.4006 49.1959C73.5337 43.351 69.9045 37.7255 64.2997 36.639C58.695 35.5524 53.2266 39.4143 52.0935 45.2591C50.9605 51.104 54.5896 56.7295 60.1944 57.816Z" fill="#7545FF"/>
</svg>
